<svg xmlns="http://www.w3.org/2000/svg" id="Raggruppa_8838" data-name="Raggruppa 8838" width="466.402" height="165.554" viewBox="0 0 466.402 165.554"><path id="Tracciato_10002" data-name="Tracciato 10002" d="M152.073,41.869h3.347l.5,3.6h2.9L155.813,27.03h-3.928L148.88,45.472h2.681l.5-3.6Zm1.673-11.817,1.315,9.307h-2.613Z" transform="translate(105.351 19.144)" fill="#7e133e"></path><path id="Tracciato_10003" data-name="Tracciato 10003" d="M164.159,32.016l3.586,13.456h2.92V27.03h-2.579V38.078l-2.92-11.048H161.58V45.472h2.578Z" transform="translate(114.337 19.144)" fill="#7e133e"></path><path id="Tracciato_10004" data-name="Tracciato 10004" d="M176.836,32.016,180.4,45.472h2.937V27.03h-2.579V38.078L177.826,27.03H174.24V45.472h2.6Z" transform="translate(123.296 19.144)" fill="#7e133e"></path><rect id="Rettangolo_1234" data-name="Rettangolo 1234" width="2.903" height="18.442" transform="translate(319.171 46.174)" fill="#7e133e"></rect><path id="Tracciato_10005" data-name="Tracciato 10005" d="M202.143,45.472l2.783-18.442h-2.664l-1.913,14.5-1.93-14.5H195.5l2.783,18.442Z" transform="translate(138.34 19.144)" fill="#7e133e"></path><path id="Tracciato_10006" data-name="Tracciato 10006" d="M215.816,42.843h-5V37.173h3.979v-2.63h-3.979V29.66h5V27.03H207.91V45.472h7.906Z" transform="translate(147.121 19.144)" fill="#7e133e"></path><path id="Tracciato_10007" data-name="Tracciato 10007" d="M228.143,39.984c0-2.083-.478-3.449-1.93-3.893v-.051c1.3-.529,1.9-1.742,1.9-3.637V31.275c0-2.852-1.3-4.235-4.3-4.235H219.52V45.482h2.9V37.576h1.008c1.315,0,1.827.546,1.827,2.271v3.381a5.869,5.869,0,0,0,.256,2.271h2.954a5.43,5.43,0,0,1-.307-2.237V40.018Zm-2.92-7c0,1.469-.666,1.947-1.742,1.947h-1.059V29.653h1.315c1.025,0,1.469.581,1.469,1.9v1.417Z" transform="translate(155.337 19.151)" fill="#7e133e"></path><path id="Tracciato_10008" data-name="Tracciato 10008" d="M235.806,45.852c2.852,0,4.371-1.691,4.371-4.7,0-2.288-.786-3.791-3.21-5.925-1.9-1.656-2.561-2.613-2.561-3.945,0-1.264.546-1.759,1.469-1.759s1.451.5,1.451,1.81v.956h2.732v-.768c0-2.954-1.4-4.645-4.218-4.645s-4.32,1.691-4.32,4.576c0,2.1.82,3.637,3.244,5.772,1.9,1.656,2.527,2.613,2.527,4.132,0,1.366-.6,1.844-1.537,1.844s-1.5-.478-1.5-1.793V40.148H231.52v1.059c0,2.954,1.417,4.645,4.269,4.645Z" transform="translate(163.828 19.038)" fill="#7e133e"></path><path id="Tracciato_10009" data-name="Tracciato 10009" d="M246.283,41.869h3.347l.5,3.6h2.9L250.023,27.03H246.1L243.09,45.472h2.681l.5-3.6Zm1.673-11.817,1.315,9.307h-2.613Z" transform="translate(172.015 19.144)" fill="#7e133e"></path><path id="Tracciato_10010" data-name="Tracciato 10010" d="M258.7,37.552h1.008c1.315,0,1.81.546,1.81,2.271V43.2a5.869,5.869,0,0,0,.256,2.271h2.954a5.421,5.421,0,0,1-.324-2.237V39.994c0-2.083-.478-3.449-1.93-3.893v-.051c1.3-.529,1.9-1.742,1.9-3.637V31.285c0-2.852-1.3-4.235-4.286-4.235h-4.3V45.492h2.9V37.586Zm0-7.906h1.315c1.025,0,1.469.581,1.469,1.9v1.417c0,1.469-.666,1.947-1.742,1.947h-1.059V29.629Z" transform="translate(180.995 19.158)" fill="#7e133e"></path><path id="Tracciato_10011" data-name="Tracciato 10011" d="M270.831,45.472h2.9V37.617l3.5-10.587h-2.818l-2,6.882L270.4,27.03H267.33l3.5,10.587Z" transform="translate(189.168 19.144)" fill="#7e133e"></path><path id="Tracciato_10012" data-name="Tracciato 10012" d="M172.472,54.271A20.884,20.884,0,0,1,184.7,58.1l.324.239,3.5-3.552-.444-.324a26.51,26.51,0,0,0-15.608-4.918c-13.012,0-23.582,8.794-23.582,19.6a18.347,18.347,0,0,0,6.95,14.037,25.7,25.7,0,0,0,16.649,5.874,26.306,26.306,0,0,0,15.078-4.525l.41-.29-3.023-3.859-.376.273a20.693,20.693,0,0,1-12.107,3.671,20.15,20.15,0,0,1-12.978-4.542,13.937,13.937,0,0,1-5.345-10.621c0-8.2,8.214-14.856,18.323-14.856Z" transform="translate(105.358 35.072)" fill="#7e133e"></path><path id="Tracciato_10013" data-name="Tracciato 10013" d="M213.989,77.078,195.956,49.79h-6.1l23.907,37,19.979-30.122h-6.011Z" transform="translate(134.349 35.25)" fill="#7e133e"></path><rect id="Rettangolo_1235" data-name="Rettangolo 1235" width="5.259" height="29.269" transform="translate(373.525 88.233)" fill="#7e133e"></rect><path id="Tracciato_10014" data-name="Tracciato 10014" d="M256.624,79.034a31.161,31.161,0,0,1-7.428-4.594l-2.766-2.459c5.277-1.81,8.624-5.908,8.624-10.621,0-6.352-6.369-11.526-14.207-11.526h-9.221V49.8H226.98V84.157h5.259V54.342h8.282c5,0,9.085,3.142,9.085,7s-4.064,7-9.085,7l-5.242.376,9.99,9.033a38.982,38.982,0,0,0,12.636,7.36A54.073,54.073,0,0,0,268,87.846l.461.085.99-4.867-.461-.1a60.112,60.112,0,0,1-12.346-3.945Z" transform="translate(160.616 35.257)" fill="#7e133e"></path><path id="Tracciato_10015" data-name="Tracciato 10015" d="M269.46,49.44c-11.185,0-21,6.079-23.855,14.788l-.2.615h5.721l.12-.29c2.613-6.182,9.938-10.331,18.2-10.331a19.673,19.673,0,0,1,12.91,4.389,13.821,13.821,0,0,1,4.918,10.57c0,4.013-1.981,7.838-5.6,10.775a21.579,21.579,0,0,1-13.61,4.611c-1.52,0-3.091-.068-4.8-.222l-.478-.034-.307,4.815.461.034c1.81.137,3.484.2,5.123.2a27.381,27.381,0,0,0,17.4-5.943c4.679-3.842,7.274-8.9,7.274-14.224,0-11.27-10.007-19.757-23.292-19.757Z" transform="translate(173.65 35.002)" fill="#7e133e"></path><path id="Tracciato_10016" data-name="Tracciato 10016" d="M190.64,50.025c-.12.2-12.79,20.184-16.991,25.956-.393.529-.7.939-.973,1.332l-.256.342,3.4,3.227.324-.427c.393-.5.734-.973,1.11-1.486,1.246-1.742,2.459-3.364,2.852-3.91h21.431l6.1,9.341h6.079L191.033,49.41l-.393.632Zm-7.5,20.509,7.684-11.424,7.65,11.424H183.127Z" transform="translate(122.008 34.981)" fill="#7e133e"></path><path id="Tracciato_10017" data-name="Tracciato 10017" d="M161.994,55.92c-1.605-10.451-5.089-20.15-7.36-30.31l-31.489.085-7.718,30.174c-.751,12.978,8.658,23.685,21.755,24.965l.034,22.814-11.885.1a3.9,3.9,0,0,0-3.723,3.381h34.716c-.342-1.605-1.9-3.33-3.262-3.347l-12.517-.188.239-22.865c12.7-1.11,23.138-12.261,21.209-24.829ZM138.856,77.5a20.372,20.372,0,0,1-20.235-21.021l7.087-27.51h26.4l6.984,27.288a20.145,20.145,0,0,1-20.218,21.226Z" transform="translate(81.649 18.139)" fill="#7e133e"></path><path id="Tracciato_10018" data-name="Tracciato 10018" d="M119.621,42.609a16.6,16.6,0,0,0,14.122,19.877,16.9,16.9,0,0,0,19.228-14.378c-15.181,4.867-18.767-10.331-33.333-5.5Z" transform="translate(84.388 29.487)" fill="#7e133e"></path><path id="Tracciato_10019" data-name="Tracciato 10019" d="M90.623,70.1a46.809,46.809,0,0,0-15.539-9.187,50.839,50.839,0,0,0-16.82-2.954q-13.755,0-21.721,5.908a31.124,31.124,0,0,0-9.99,12.688,104.313,104.313,0,0,1,4.03-19.416A94.991,94.991,0,0,1,43.852,29.986,67.648,67.648,0,0,1,64.224,10.912,49.416,49.416,0,0,1,90.077,3.876V0A81.449,81.449,0,0,0,54.883,7.684,91.849,91.849,0,0,0,26.229,28.808,99.917,99.917,0,0,0,0,96.754q0,22.566,6.608,37.892t18.7,23.1q12.09,7.787,28.654,7.787t28.227-7.257a47.743,47.743,0,0,0,17.9-19.894q6.224-12.628,6.233-28.756,0-13.755-4.3-23.548a45.013,45.013,0,0,0-11.39-16.017ZM79.66,128.567a70.411,70.411,0,0,1-3.876,16.666A27.937,27.937,0,0,1,67.878,157c-3.4,2.9-7.838,4.354-13.268,4.354A20.112,20.112,0,0,1,40.9,156.521a35.1,35.1,0,0,1-8.982-13.012,77.692,77.692,0,0,1-5-18.647,147.5,147.5,0,0,1-1.554-21.772l.239-6.4a57.941,57.941,0,0,1,2.835-14.668q3.074-8.811,9.187-13.49t15.369-4.679A21.987,21.987,0,0,1,67.98,69.056q6.173,5.225,9.46,15.369,3.279,10.169,3.279,25.2a163.548,163.548,0,0,1-1.076,18.92Z" transform="translate(0 0.017)" fill="#7e133e"></path><path id="Tracciato_10020" data-name="Tracciato 10020" d="M155.768,137.5q-3.227,11.168-9.307,17.691Q140.39,161.7,130.17,161.7c-6.813,0-12.141-2.169-16.239-6.506q-6.122-6.506-9.307-17.691a128.726,128.726,0,0,1-4.252-25.375Q99.3,97.939,99.3,82.775t1.349-29.354a127.312,127.312,0,0,1,4.781-25.375q3.432-11.168,9.409-17.674a19.852,19.852,0,0,1,15.317-6.506,20.43,20.43,0,0,1,15.539,6.506q6.071,6.506,9.409,17.674c.649,2.169,1.229,4.406,1.759,6.728H178.8a80.947,80.947,0,0,0-6.387-10.707A61.043,61.043,0,0,0,153.548,6.325a46.3,46.3,0,0,0-46.755,0A60.518,60.518,0,0,0,87.975,24.067a90.972,90.972,0,0,0-12.517,26.4A111.675,111.675,0,0,0,70.95,82.775a118.71,118.71,0,0,0,4.235,32.308,89.884,89.884,0,0,0,12.039,26.383,57.861,57.861,0,0,0,18.7,17.742,49.573,49.573,0,0,0,48.5,0,58.391,58.391,0,0,0,18.767-17.742,78.683,78.683,0,0,0,4.423-7.24H156.655c-.273,1.11-.581,2.2-.871,3.262Z" transform="translate(50.206 0.01)" fill="#7e133e"></path></svg>